Coordinates
version=1
nRows=22
nColumns=24
inDegrees=yes

Units are S.I. units (second, meters, Newtons, ...)
Angles are in degrees.

endheader
time	pelvis_tilt	pelvis_list	pelvis_rotation	pelvis_tx	pelvis_ty	pelvis_tz	hip_flexion_r	hip_adduction_r	hip_rotation_r	knee_angle_r	ankle_angle_r	subtalar_angle_r	mtp_angle_r	hip_flexion_l	hip_adduction_l	hip_rotation_l	knee_angle_l	ankle_angle_l	subtalar_angle_l	mtp_angle_l	lumbar_extension	lumbar_bending	lumbar_rotation
      3.79000000	    -11.46988333	     -5.81976257	     -0.63134699	     -1.37958196	     -0.01189657	      0.46343272	      8.46210984	     10.32803856	     11.39028572	     -7.64346544	      1.13439457	     -4.63170919	      2.79747932	     35.83890198	     -5.40576281	      2.52029280	    -41.70206401	     -2.33139959	      5.49945624	     19.61124452	      6.53541056	      6.46423262	      6.14556928
      3.79500000	    -11.49855295	     -5.63206550	     -0.81491566	     -1.37292399	     -0.01229375	      0.46377069	      7.95241332	     10.21195618	     11.94990109	     -7.48583206	      1.22250569	     -5.24802898	      2.31060787	     36.16312196	     -5.31992690	      2.24008023	    -40.29993198	     -2.33625210	      5.46796327	     19.00963524	      6.58665360	      6.28550514	      6.42293461
      3.80000000	    -11.55477936	     -5.44170137	     -0.99394784	     -1.36628204	     -0.01281356	      0.46411491	      7.49468344	     10.09328964	     12.49258952	     -7.36871739	      1.36545437	     -5.83026037	      1.86576881	     36.49008158	     -5.25221273	      1.89987337	    -38.84327119	     -2.36796063	      5.43455187	     18.43769884	      6.66558126	      6.09900470	      6.64330299
      3.80500000	    -11.60231958	     -5.25035724	     -1.16542083	     -1.35967856	     -0.01337752	      0.46445164	      7.04304509	      9.97348225	     13.04200083	     -7.27843740	      1.50415855	     -6.43524009	      1.37748722	     36.77186868	     -5.19261799	      1.55310578	    -37.32684623	     -2.41686771	      5.45549990	     17.84828610	      6.72800465	      5.91187752	      6.88972894
      3.81000000	    -11.61746075	     -5.06870742	     -1.33807651	     -1.35316763	     -0.01396737	      0.46481205	      6.58706127	      9.87289034	     13.58197740	     -7.24360358	      1.64084750	     -7.08487912	      0.77073172	     36.98853731	     -5.15754243	      1.19842423	    -35.76652517	     -2.46453817	      5.53930658	     17.18615757	      6.73606407	      5.73124065	      7.20748227
      3.81500000	    -11.63804740	     -4.88794047	     -1.48236133	     -1.34659561	     -0.01465022	      0.46514883	      6.13992551	      9.76565739	     14.08168430	     -7.22390723	      1.84811207	     -7.66971499	      0.11338144	     37.18340364	     -5.12877695	      0.78714488	    -34.17040590	     -2.48331274	      5.68864382	     16.52001152	      6.75988217	      5.54723366	      7.43349584
      3.82000000	    -11.73474369	     -4.71035146	     -1.66882356	     -1.34006249	     -0.01548978	      0.46549027	      5.80882448	      9.65793229	     14.57611957	     -7.25839044	      2.12081419	     -8.08732098	     -0.21781794	     37.43231485	     -5.13261417	      0.29756036	    -32.52675264	     -2.63370817	      5.67821421	     16.01772682	      6.86214625	      5.37083810	      7.65555948
      3.82500000	    -11.68724139	     -4.53196489	     -1.80516675	     -1.33350530	     -0.01622328	      0.46587312	      5.31158710	      9.55309285	     15.07694768	     -7.29295712	      2.35347259	     -8.67343207	     -0.94217887	     37.49205434	     -5.13078318	     -0.20723069	    -30.86382404	     -2.66388456	      5.89121656	     15.36967388	      6.80289950	      5.17209741	      7.87611754
      3.83000000	    -11.79221766	     -4.37125876	     -2.00062053	     -1.32696480	     -0.01721356	      0.46620138	      5.02119759	      9.45942071	     15.51225465	     -7.38903232	      2.68315661	     -8.99448830	     -1.18151976	     37.69909945	     -5.17034559	     -0.78864176	    -29.18098151	     -2.82609641	      5.88752270	     14.93001725	      6.90987026	      5.01875592	      8.13286558
      3.83500000	    -11.76134496	     -4.19705802	     -2.17293626	     -1.32037791	     -0.01810704	      0.46658663	      4.57864444	      9.35461202	     15.94445293	     -7.49088492	      2.98447967	     -9.43881897	     -1.64343337	     37.72529690	     -5.20005421	     -1.43404749	    -27.48787596	     -2.90160111	      6.00680311	     14.44094424	      6.86744436	      4.83091619	      8.40975350
      3.84000000	    -11.79689181	     -4.05064022	     -2.34753796	     -1.31377854	     -0.01913570	      0.46688551	      4.21607841	      9.26129660	     16.37792764	     -7.60635457	      3.32938345	     -9.71919372	     -1.91488476	     37.82065365	     -5.24742135	     -2.08867982	    -25.81794909	     -3.02835060	      6.10594086	     14.03373356	      6.90014274	      4.68460800	      8.62427610
      3.84500000	    -11.69072514	     -3.89185464	     -2.48150984	     -1.30710293	     -0.02007281	      0.46720058	      3.69503332	      9.15206340	     16.76721420	     -7.73338120	      3.71423249	    -10.03841201	     -2.44580912	     37.74220990	     -5.26271813	     -2.78959630	    -24.16993181	     -3.04697448	      6.31124985	     13.58093750	      6.78371682	      4.50048361	      8.81550801
      3.85000000	    -11.74353016	     -3.77306235	     -2.67078025	     -1.30043379	     -0.02125232	      0.46743433	      3.37349363	      9.07878504	     17.12317990	     -7.89655820	      4.10446326	    -10.20054909	     -2.57191284	     37.84334157	     -5.32378820	     -3.49550131	    -22.57466183	     -3.14610953	      6.37992856	     13.27136303	      6.83722923	      4.39263523	      9.06573207
      3.85500000	    -11.60783172	     -3.62265383	     -2.80517900	     -1.29365017	     -0.02225438	      0.46764427	      2.82642855	      8.95612408	     17.42665678	     -8.03499929	      4.51113607	    -10.38764223	     -2.90615070	     37.72153884	     -5.31835460	     -4.23892102	    -21.01402643	     -3.15098484	      6.57484645	     12.95517884	      6.69951826	      4.22399336	      9.26384539
      3.86000000	    -11.54452976	     -3.49552463	     -2.96314840	     -1.28682306	     -0.02339223	      0.46780314	      2.36485065	      8.84973903	     17.72650255	     -8.18885857	      4.93875626	    -10.46856069	     -3.07321994	     37.68626290	     -5.32397463	     -4.92893930	    -19.53259333	     -3.15764548	      6.71215045	     12.69325307	      6.64249502	      4.09627002	      9.48375333
      3.86500000	    -11.45938826	     -3.37203474	     -3.10708127	     -1.27999441	     -0.02453349	      0.46789832	      1.89111760	      8.73934977	     17.95963960	     -8.35622896	      5.35582451	    -10.52281223	     -3.16629119	     37.63976831	     -5.30452920	     -5.56909894	    -18.13374778	     -3.17315351	      6.85249570	     12.45632470	      6.55888692	      3.96845533	      9.69339339
      3.87000000	    -11.40791551	     -3.26778594	     -3.26824764	     -1.27315983	     -0.02574028	      0.46795142	      1.46137000	      8.64428902	     18.17244163	     -8.53327651	      5.74845500	    -10.54106780	     -3.14784703	     37.64980954	     -5.29245775	     -6.16425364	    -16.84081165	     -3.19960175	      6.93589701	     12.24456399	      6.50762999	      3.87173483	      9.90102853
      3.87500000	    -11.25492234	     -3.13576247	     -3.39066772	     -1.26621454	     -0.02685617	      0.46793518	      0.90462299	      8.49836372	     18.31085423	     -8.67965864	      6.16914041	    -10.49482826	     -3.11755860	     37.53798048	     -5.20932631	     -6.62469137	    -15.61747709	     -3.15465909	      7.06763141	     12.05264694	      6.36124508	      3.73320094	     10.09524681
      3.88000000	    -11.13884030	     -3.01008348	     -3.51481351	     -1.25926114	     -0.02800754	      0.46787026	      0.39563256	      8.35446058	     18.40512824	     -8.83393020	      6.56333751	    -10.40934237	     -3.03015784	     37.48170524	     -5.11507357	     -6.98985070	    -14.49934758	     -3.14544783	      7.15812749	     11.86147370	      6.25106764	      3.60538317	     10.27704756
      3.88500000	    -10.99830411	     -2.87828459	     -3.62645442	     -1.25227019	     -0.02915510	      0.46777145	     -0.13841801	      8.19604892	     18.43461933	     -8.98696318	      6.96705969	    -10.28037450	     -2.88859670	     37.40247462	     -4.99196284	     -7.20748307	    -13.47891106	     -3.10022224	      7.23432651	     11.69201343	      6.11948387	      3.46657802	     10.45255839
      3.89000000	    -10.93236593	     -2.73335941	     -3.74664552	     -1.24522739	     -0.03037644	      0.46767133	     -0.58952769	      8.02516252	     18.46583864	     -9.14361090	      7.34038672	    -10.16485339	     -2.71789774	     37.40777341	     -4.85490118	     -7.32806056	    -12.55705594	     -3.07059300	      7.30684874	     11.56015493	      6.07476261	      3.31747453	     10.61453819
      3.89500000	    -10.76340328	     -2.58787631	     -3.86095971	     -1.23824264	     -0.03144955	      0.46753326	     -1.14125895	      7.83614023	     18.40826487	     -9.30365856	      7.72389926	     -9.91029480	     -2.47005073	     37.28937473	     -4.70250485	     -7.29368939	    -11.70582647	     -3.04836057	      7.39972760	     11.43189741	      5.90374277	      3.16014781	     10.81080839
